<svg width="75" xmlns="http://www.w3.org/2000/svg" height="75" id="screenshot-bbd77675-4824-8032-8006-58450b15f67a" viewBox="0 -0 75 75" xmlns:xlink="http://www.w3.org/1999/xlink" fill="none" version="1.1"><g id="shape-bbd77675-4824-8032-8006-58450b15f67a"><defs><clipPath id="frame-clip-bbd77675-4824-8032-8006-58450b15f67a-render-1" class="frame-clip frame-clip-def"><rect rx="0" ry="0" x="0" y="0" width="75" height="74.99999999999977" transform="matrix(1.000000, 0.000000, 0.000000, 1.000000, 0.000000, 0.000000)"/></clipPath></defs><g class="frame-container-wrapper"><g class="frame-container-blur"><g class="frame-container-shadows"><g clip-path="url(#frame-clip-bbd77675-4824-8032-8006-58450b15f67a-render-1)" fill="none"><g class="fills" id="fills-bbd77675-4824-8032-8006-58450b15f67a"><rect rx="0" ry="0" x="0" y="0" width="75" height="74.99999999999977" transform="matrix(1.000000, 0.000000, 0.000000, 1.000000, 0.000000, 0.000000)" class="frame-background"/></g><g class="frame-children"><g id="shape-bbd77675-4824-8032-8006-58450b15f67d" rx="0" ry="0"><g id="shape-bbd77675-4824-8032-8006-58450b15f67e" rx="0" ry="0"><g id="shape-bbd77675-4824-8032-8006-58450b15f680"><defs><pattern patternUnits="userSpaceOnUse" x="9.499999999998067" y="16.99999999999841" width="51.99999999999977" height="52.000000000000455" id="fill-0-render-4"><g><rect width="51.99999999999977" height="52.000000000000455" style="fill: rgb(73, 121, 252); fill-opacity: 1;"/><rect width="51.99999999999977" height="52.000000000000455" style="fill: rgb(67, 67, 113); fill-opacity: 0.5;"/></g></pattern></defs><g class="fills" id="fills-bbd77675-4824-8032-8006-58450b15f680"><rect rx="3" ry="3" x="9.499999999998067" y="16.99999999999841" transform="matrix(0.000000, 1.000000, -1.000000, 0.000000, 78.500000, 7.500000)" width="51.99999999999977" height="52.000000000000455" fill="url(#fill-0-render-4)"/></g></g><g id="shape-bbd77675-4824-8032-8006-58450b15f681"><defs><pattern patternUnits="userSpaceOnUse" x="11.499999999998067" y="17.00000000000159" width="54.00000000000432" height="51.999999999997726" patternTransform="matrix(1.000000, 0.000000, 0.000000, 1.000000, 0.000000, 0.000000)" id="fill-0-render-5"><g><rect width="54.00000000000432" height="51.999999999997726" style="fill: rgb(73, 121, 252); fill-opacity: 1;"/><rect width="54.00000000000432" height="51.999999999997726" style="fill: rgb(27, 27, 89); fill-opacity: 0.5;"/></g></pattern></defs><g class="fills" id="fills-bbd77675-4824-8032-8006-58450b15f681"><path d="M62.500,69.000L29.500,69.000L12.480,69.000C12.136,69.000,11.806,68.939,11.500,68.827L26.500,50.745L26.500,20.000C26.500,18.344,27.844,17.000,29.500,17.000L62.500,17.000C64.156,17.000,65.500,18.344,65.500,20.000L65.500,48.000L65.500,66.000C65.500,67.687,64.205,69.000,62.609,69.000" fill="url(#fill-0-render-5)"/></g></g><g id="shape-bbd77675-4824-8032-8006-58450b15f682"><defs><clipPath id="frame-clip-bbd77675-4824-8032-8006-58450b15f682-render-6" class="frame-clip frame-clip-def"><rect rx="3" ry="3" x="18.499999999997613" y="16.99999999999841" width="43.00000000000068" height="43.000000000000455" transform="matrix(-0.000000, 1.000000, -1.000000, 0.000000, 78.500000, -1.500000)"/></clipPath><pattern patternUnits="userSpaceOnUse" x="18.499999999997613" y="16.99999999999841" width="43.00000000000068" height="43.000000000000455" id="fill-0-render-6"><g><rect width="43.00000000000068" height="43.000000000000455" style="fill: rgb(179, 218, 226); fill-opacity: 1;"/><rect width="43.00000000000068" height="43.000000000000455" style="fill: rgb(73, 121, 252); fill-opacity: 1;"/></g></pattern></defs><g class="frame-container-wrapper"><g class="frame-container-blur"><defs><filter id="filter-shadow-render-6" x="0" y="0" width="1" height="1" filterUnits="objectBoundingBox" color-interpolation-filters="sRGB"><feFlood flood-opacity="0" result="BackgroundImageFix"/><feBlend mode="normal" in="SourceGraphic" in2="BackgroundImageFix" result="shape"/><feColorMatrix in="SourceAlpha" type="matrix" values="0 0 0 0 0 0 0 0 0 0 0 0 0 0 0 0 0 0 127 0" result="hardAlpha"/><feOffset dx="3" dy="4"/><feGaussianBlur stdDeviation="1"/><feComposite in2="hardAlpha" operator="arithmetic" k2="-1" k3="1"/><feColorMatrix type="matrix" values="0 0 0 0 0.7411764705882353 0 0 0 0 0.7411764705882353 0 0 0 0 0.7411764705882353 0 0 0 0.2 0"/><feBlend mode="normal" in2="shape" result="filter_eeae2ac0-21e2-8062-8006-54cf6116023a"/></filter></defs><g class="frame-container-shadows" filter="url(#filter-shadow-render-6)"><g clip-path="url(#frame-clip-bbd77675-4824-8032-8006-58450b15f682-render-6)" fill="none"><g class="fills" id="fills-bbd77675-4824-8032-8006-58450b15f682"><rect width="43.00000000000068" height="43.000000000000455" class="frame-background" x="18.499999999997613" transform="matrix(-0.000000, 1.000000, -1.000000, 0.000000, 78.500000, -1.500000)" ry="3" fill="url(#fill-0-render-6)" rx="3" y="16.99999999999841"/></g><g class="frame-children"/></g></g></g></g></g></g><g id="shape-bbd77675-4824-8032-8006-58450b15f67f" width="21.438" height="17" rx="0" ry="0" style="fill: rgb(0, 0, 0);"><g id="shape-bbd77675-4824-8032-8006-58450b15f685" style="display: none;"><g class="fills" id="fills-bbd77675-4824-8032-8006-58450b15f685"><rect width="21.437999999999988" height="17" x="27.9999999999975" transform="matrix(1.000000, 0.000000, 0.000000, 1.000000, 0.000000, 0.000000)" style="fill: none;" ry="0" fill="none" rx="0" y="29.99999999999841"/></g></g><g id="shape-bbd77675-4824-8032-8006-58450b15f686" filter="url(#filter-render-9)" rx="0" ry="0" style="opacity: 1; fill: rgb(236, 237, 134); fill-opacity: 1;"><defs><filter id="filter-render-9" x="-0.9794776119403013" y="-1.9462465245597842" width="2.9589552238806025" height="4.892493049119568" filterUnits="objectBoundingBox" color-interpolation-filters="sRGB"><feFlood flood-opacity="0" result="BackgroundImageFix"/><feColorMatrix in="SourceAlpha" type="matrix" values="0 0 0 0 0 0 0 0 0 0 0 0 0 0 0 0 0 0 127 0"/><feOffset dx="0" dy="0"/><feGaussianBlur stdDeviation="1"/><feColorMatrix type="matrix" values="0 0 0 0 0 0 0 0 0 0 0 0 0 0 0 0 0 0 0.2 0"/><feBlend mode="normal" in2="BackgroundImageFix" result="filter_eeae2ac0-21e2-8062-8006-54d14196764b"/><feBlend mode="normal" in="SourceGraphic" in2="filter_eeae2ac0-21e2-8062-8006-54d14196764b" result="shape"/></filter><filter id="filter-shadow-render-9" x="-0.9794776119403013" y="-1.9462465245597842" width="2.9589552238806025" height="4.892493049119568" filterUnits="objectBoundingBox" color-interpolation-filters="sRGB"><feFlood flood-opacity="0" result="BackgroundImageFix"/><feColorMatrix in="SourceAlpha" type="matrix" values="0 0 0 0 0 0 0 0 0 0 0 0 0 0 0 0 0 0 127 0"/><feOffset dx="0" dy="0"/><feGaussianBlur stdDeviation="1"/><feColorMatrix type="matrix" values="0 0 0 0 0 0 0 0 0 0 0 0 0 0 0 0 0 0 0.2 0"/><feBlend mode="normal" in2="BackgroundImageFix" result="filter_eeae2ac0-21e2-8062-8006-54d14196764b"/><feBlend mode="normal" in="SourceGraphic" in2="filter_eeae2ac0-21e2-8062-8006-54d14196764b" result="shape"/></filter></defs><g id="shape-bbd77675-4824-8032-8006-58450b15f687"><g class="fills" id="fills-bbd77675-4824-8032-8006-58450b15f687"><path d="M33.690,33.285L33.690,33.285ZC34.397,33.285,35.140,33.308,35.920,33.355C36.707,33.408,37.527,33.505,38.380,33.645L38.380,33.645L38.380,35.385C38.073,35.298,37.723,35.218,37.330,35.145L37.330,35.145C36.997,35.078,36.590,35.015,36.110,34.955C35.637,34.895,35.103,34.855,34.510,34.835L34.510,34.835L34.510,42.125C35.103,42.105,35.637,42.068,36.110,42.015C36.590,41.955,36.997,41.892,37.330,41.825L37.330,41.825C37.723,41.745,38.073,41.662,38.380,41.575L38.380,41.575L38.380,43.315C37.527,43.462,36.707,43.558,35.920,43.605C35.140,43.658,34.397,43.685,33.690,43.685L33.690,43.685C33.003,43.685,32.267,43.658,31.480,43.605C30.693,43.558,29.870,43.462,29.010,43.315L29.010,43.315L29.010,41.575C29.317,41.662,29.667,41.745,30.060,41.825L30.060,41.825C30.393,41.892,30.797,41.955,31.270,42.015C31.750,42.068,32.287,42.105,32.880,42.125L32.880,42.125L32.880,34.835C32.287,34.855,31.750,34.895,31.270,34.955C30.797,35.015,30.393,35.078,30.060,35.145L30.060,35.145C29.667,35.218,29.317,35.298,29.010,35.385L29.010,35.385L29.010,33.645C29.870,33.505,30.693,33.408,31.480,33.355C32.267,33.308,33.003,33.285,33.690,33.285ZZM45.400,33.105L45.400,33.105ZC45.860,33.105,46.303,33.132,46.730,33.185C47.157,33.238,47.557,33.318,47.930,33.425C48.303,33.525,48.647,33.645,48.960,33.785C49.267,33.932,49.530,34.095,49.750,34.275C49.970,34.462,50.140,34.662,50.260,34.875C50.387,35.095,50.450,35.325,50.450,35.565L50.450,35.565L50.450,41.425C50.450,41.672,50.387,41.902,50.260,42.115C50.140,42.335,49.970,42.535,49.750,42.715C49.530,42.895,49.267,43.058,48.960,43.205C48.647,43.345,48.303,43.468,47.930,43.575C47.557,43.675,47.157,43.752,46.730,43.805C46.303,43.865,45.860,43.895,45.400,43.895L45.400,43.895C44.947,43.895,44.507,43.865,44.080,43.805C43.653,43.752,43.257,43.675,42.890,43.575C42.517,43.468,42.173,43.345,41.860,43.205C41.553,43.058,41.290,42.895,41.070,42.715C40.850,42.535,40.677,42.335,40.550,42.115C40.430,41.902,40.370,41.672,40.370,41.425L40.370,41.425L40.370,35.565C40.370,35.325,40.430,35.095,40.550,34.875C40.677,34.662,40.850,34.462,41.070,34.275C41.290,34.095,41.553,33.932,41.860,33.785C42.173,33.645,42.517,33.525,42.890,33.425C43.257,33.318,43.653,33.238,44.080,33.185C44.507,33.132,44.947,33.105,45.400,33.105ZZM48.660,40.905L48.660,36.085C48.660,35.885,48.583,35.698,48.430,35.525C48.283,35.352,48.070,35.198,47.790,35.065C47.510,34.925,47.167,34.818,46.760,34.745C46.360,34.665,45.907,34.625,45.400,34.625L45.400,34.625C44.913,34.625,44.473,34.662,44.080,34.735C43.680,34.808,43.340,34.912,43.060,35.045C42.773,35.178,42.553,35.332,42.400,35.505C42.240,35.685,42.160,35.878,42.160,36.085L42.160,36.085L42.160,40.905C42.160,41.112,42.240,41.302,42.400,41.475C42.553,41.655,42.773,41.812,43.060,41.945C43.340,42.078,43.680,42.182,44.080,42.255C44.473,42.335,44.913,42.375,45.400,42.375L45.400,42.375C45.907,42.375,46.360,42.335,46.760,42.255C47.167,42.175,47.510,42.065,47.790,41.925C48.070,41.792,48.283,41.635,48.430,41.455C48.583,41.282,48.660,41.098,48.660,40.905ZL48.660,40.905ZZ" style="fill: rgb(236, 237, 134); fill-opacity: 1;"/></g></g></g></g></g></g></g></g></g></g></g></svg>