<svg width="75" xmlns="http://www.w3.org/2000/svg" height="75" id="screenshot-bbd77675-4824-8032-8006-58450b15f67c" viewBox="0 -0 75 75" xmlns:xlink="http://www.w3.org/1999/xlink" fill="none" version="1.1"><g id="shape-bbd77675-4824-8032-8006-58450b15f67c"><defs><clipPath id="frame-clip-bbd77675-4824-8032-8006-58450b15f67c-render-1" class="frame-clip frame-clip-def"><rect rx="0" ry="0" x="0" y="0" width="75" height="74.99999999999977" transform="matrix(1.000000, 0.000000, 0.000000, 1.000000, 0.000000, 0.000000)"/></clipPath></defs><g class="frame-container-wrapper"><g class="frame-container-blur"><g class="frame-container-shadows"><g clip-path="url(#frame-clip-bbd77675-4824-8032-8006-58450b15f67c-render-1)" fill="none"><g class="fills" id="fills-bbd77675-4824-8032-8006-58450b15f67c"><rect rx="0" ry="0" x="0" y="0" width="75" height="74.99999999999977" transform="matrix(1.000000, 0.000000, 0.000000, 1.000000, 0.000000, 0.000000)" class="frame-background"/></g><g class="frame-children"><g id="shape-bbd77675-4824-8032-8006-58450b15f693" filter="url(#filter-render-2)" rx="0" ry="0"><defs><filter id="filter-render-2" x="-0.43333333333333335" y="-0.3050847457627095" width="1.8" height="1.7627118644067739" filterUnits="objectBoundingBox" color-interpolation-filters="sRGB"><feFlood flood-opacity="0" result="BackgroundImageFix"/><feColorMatrix in="SourceAlpha" type="matrix" values="0 0 0 0 0 0 0 0 0 0 0 0 0 0 0 0 0 0 127 0"/><feOffset dx="-4" dy="3"/><feGaussianBlur stdDeviation="0.5"/><feColorMatrix type="matrix" values="0 0 0 0 0 0 0 0 0 0 0 0 0 0 0 0 0 0 0.2 0"/><feBlend mode="normal" in2="BackgroundImageFix" result="filter_e946368b-02d3-806c-8006-54f0b929d632"/><feBlend mode="normal" in="SourceGraphic" in2="filter_e946368b-02d3-806c-8006-54f0b929d632" result="shape"/></filter><filter id="filter-shadow-render-2" x="-0.43333333333333335" y="-0.3050847457627095" width="1.8" height="1.7627118644067739" filterUnits="objectBoundingBox" color-interpolation-filters="sRGB"><feFlood flood-opacity="0" result="BackgroundImageFix"/><feColorMatrix in="SourceAlpha" type="matrix" values="0 0 0 0 0 0 0 0 0 0 0 0 0 0 0 0 0 0 127 0"/><feOffset dx="-4" dy="3"/><feGaussianBlur stdDeviation="0.5"/><feColorMatrix type="matrix" values="0 0 0 0 0 0 0 0 0 0 0 0 0 0 0 0 0 0 0.2 0"/><feBlend mode="normal" in2="BackgroundImageFix" result="filter_e946368b-02d3-806c-8006-54f0b929d632"/><feBlend mode="normal" in="SourceGraphic" in2="filter_e946368b-02d3-806c-8006-54f0b929d632" result="shape"/></filter></defs><g id="shape-bbd77675-4824-8032-8006-58450b15f694"><defs><pattern patternUnits="userSpaceOnUse" x="6.739495798319126" y="10.760504201679623" width="59.000000000000455" height="57.47899159663848" id="fill-0-render-3"><g><rect width="59.000000000000455" height="57.47899159663848" style="fill: rgb(73, 121, 252); fill-opacity: 1;"/><rect width="59.000000000000455" height="57.47899159663848" style="fill: rgb(67, 67, 113); fill-opacity: 0.5;"/></g></pattern></defs><g class="fills" id="fills-bbd77675-4824-8032-8006-58450b15f694"><rect rx="3" ry="3" x="6.739495798319126" y="10.760504201679623" transform="matrix(0.000000, 1.000000, -1.000000, 0.000000, 75.739496, 3.260504)" width="59.000000000000455" height="57.47899159663848" fill="url(#fill-0-render-3)"/></g></g><g id="shape-bbd77675-4824-8032-8006-58450b15f695"><defs><pattern patternUnits="userSpaceOnUse" x="8.004201680672395" y="9.999999999998863" width="59.49579831932772" height="59.000000000000455" patternTransform="matrix(1.000000, 0.000000, 0.000000, 1.000000, 0.000000, 0.000000)" id="fill-0-render-4"><g><rect width="59.49579831932772" height="59.000000000000455" style="fill: rgb(73, 121, 252); fill-opacity: 1;"/><rect width="59.49579831932772" height="59.000000000000455" style="fill: rgb(27, 27, 89); fill-opacity: 0.5;"/></g></pattern></defs><g class="fills" id="fills-bbd77675-4824-8032-8006-58450b15f695"><path d="M64.195,69.000L27.836,69.000L9.084,69.000C8.705,69.000,8.342,68.931,8.004,68.804L24.531,48.287L24.531,13.404C24.531,11.525,26.012,10.000,27.836,10.000L64.195,10.000C66.019,10.000,67.500,11.525,67.500,13.404L67.500,45.173L67.500,65.596C67.500,67.510,66.073,69.000,64.315,69.000" fill="url(#fill-0-render-4)"/></g></g><g id="shape-bbd77675-4824-8032-8006-58450b15f696" rx="0" ry="0"><g id="shape-bbd77675-4824-8032-8006-58450b15f699"><defs><clipPath id="frame-clip-bbd77675-4824-8032-8006-58450b15f699-render-6" class="frame-clip frame-clip-def"><rect rx="3" ry="3" x="18.78991596638639" y="9.802521008402664" width="47.000000000000455" height="47.39495798319331" transform="matrix(-0.000000, 1.000000, -1.000000, 0.000000, 75.789916, -8.789916)"/></clipPath><pattern patternUnits="userSpaceOnUse" x="18.78991596638639" y="9.802521008402664" width="47.000000000000455" height="47.39495798319331" id="fill-0-render-6"><g><rect width="47.000000000000455" height="47.39495798319331" style="fill: rgb(179, 218, 226); fill-opacity: 1;"/><rect width="47.000000000000455" height="47.39495798319331" style="fill: rgb(73, 121, 252); fill-opacity: 1;"/></g></pattern></defs><g class="frame-container-wrapper"><g class="frame-container-blur"><defs><filter id="filter-shadow-render-6" x="0" y="0" width="1" height="1" filterUnits="objectBoundingBox" color-interpolation-filters="sRGB"><feFlood flood-opacity="0" result="BackgroundImageFix"/><feBlend mode="normal" in="SourceGraphic" in2="BackgroundImageFix" result="shape"/><feColorMatrix in="SourceAlpha" type="matrix" values="0 0 0 0 0 0 0 0 0 0 0 0 0 0 0 0 0 0 127 0" result="hardAlpha"/><feOffset dx="3" dy="4"/><feGaussianBlur stdDeviation="1"/><feComposite in2="hardAlpha" operator="arithmetic" k2="-1" k3="1"/><feColorMatrix type="matrix" values="0 0 0 0 0.7411764705882353 0 0 0 0 0.7411764705882353 0 0 0 0 0.7411764705882353 0 0 0 0.2 0"/><feBlend mode="normal" in2="shape" result="filter_eeae2ac0-21e2-8062-8006-54cf6116023a"/></filter></defs><g class="frame-container-shadows" filter="url(#filter-shadow-render-6)"><g clip-path="url(#frame-clip-bbd77675-4824-8032-8006-58450b15f699-render-6)" fill="none"><g class="fills" id="fills-bbd77675-4824-8032-8006-58450b15f699"><rect width="47.000000000000455" height="47.39495798319331" class="frame-background" x="18.78991596638639" transform="matrix(-0.000000, 1.000000, -1.000000, 0.000000, 75.789916, -8.789916)" ry="3" fill="url(#fill-0-render-6)" rx="3" y="9.802521008402664"/></g><g class="frame-children"/></g></g></g></g></g><g id="shape-bbd77675-4824-8032-8006-58450b15f69a" width="21.438" height="17" rx="0" ry="0" style="fill: rgb(0, 0, 0);"><g id="shape-bbd77675-4824-8032-8006-58450b15f69b" style="display: none;"><g class="fills" id="fills-bbd77675-4824-8032-8006-58450b15f69b"><rect width="23.629142075435084" height="18.58139534883685" x="29.063416064099897" transform="matrix(1.000000, 0.000000, 0.000000, 1.000000, 0.000000, 0.000000)" style="fill: none;" ry="0" fill="none" rx="0" y="24.20930232558044"/></g></g><g id="shape-bbd77675-4824-8032-8006-58450b15f69c" filter="url(#filter-render-9)" rx="0" ry="0" style="opacity: 1; fill: rgb(236, 237, 134); fill-opacity: 1;"><defs><filter id="filter-render-9" x="-0.88865016671959" y="-1.780608522469636" width="2.77730033343918" height="4.561217044939272" filterUnits="objectBoundingBox" color-interpolation-filters="sRGB"><feFlood flood-opacity="0" result="BackgroundImageFix"/><feColorMatrix in="SourceAlpha" type="matrix" values="0 0 0 0 0 0 0 0 0 0 0 0 0 0 0 0 0 0 127 0"/><feOffset dx="0" dy="0"/><feGaussianBlur stdDeviation="1"/><feColorMatrix type="matrix" values="0 0 0 0 0 0 0 0 0 0 0 0 0 0 0 0 0 0 0.2 0"/><feBlend mode="normal" in2="BackgroundImageFix" result="filter_eeae2ac0-21e2-8062-8006-54d14196764b"/><feBlend mode="normal" in="SourceGraphic" in2="filter_eeae2ac0-21e2-8062-8006-54d14196764b" result="shape"/></filter><filter id="filter-shadow-render-9" x="-0.88865016671959" y="-1.780608522469636" width="2.77730033343918" height="4.561217044939272" filterUnits="objectBoundingBox" color-interpolation-filters="sRGB"><feFlood flood-opacity="0" result="BackgroundImageFix"/><feColorMatrix in="SourceAlpha" type="matrix" values="0 0 0 0 0 0 0 0 0 0 0 0 0 0 0 0 0 0 127 0"/><feOffset dx="0" dy="0"/><feGaussianBlur stdDeviation="1"/><feColorMatrix type="matrix" values="0 0 0 0 0 0 0 0 0 0 0 0 0 0 0 0 0 0 0.2 0"/><feBlend mode="normal" in2="BackgroundImageFix" result="filter_eeae2ac0-21e2-8062-8006-54d14196764b"/><feBlend mode="normal" in="SourceGraphic" in2="filter_eeae2ac0-21e2-8062-8006-54d14196764b" result="shape"/></filter></defs><g id="shape-bbd77675-4824-8032-8006-58450b15f69d"><g class="fills" id="fills-bbd77675-4824-8032-8006-58450b15f69d"><path d="M35.335,27.800L35.335,27.800ZC36.114,27.800,36.933,27.825,37.793,27.876C38.660,27.935,39.564,28.040,40.504,28.193L40.504,28.193L40.504,30.095C40.166,30.001,39.781,29.913,39.347,29.833L39.347,29.833C38.980,29.760,38.531,29.691,38.002,29.625C37.481,29.560,36.893,29.516,36.239,29.494L36.239,29.494L36.239,37.462C36.893,37.440,37.481,37.400,38.002,37.342C38.531,37.276,38.980,37.207,39.347,37.134L39.347,37.134C39.781,37.047,40.166,36.956,40.504,36.861L40.504,36.861L40.504,38.763C39.564,38.923,38.660,39.029,37.793,39.080C36.933,39.138,36.114,39.167,35.335,39.167L35.335,39.167C34.578,39.167,33.766,39.138,32.899,39.080C32.032,39.029,31.125,38.923,30.177,38.763L30.177,38.763L30.177,36.861C30.515,36.956,30.900,37.047,31.334,37.134L31.334,37.134C31.701,37.207,32.146,37.276,32.668,37.342C33.197,37.400,33.788,37.440,34.442,37.462L34.442,37.462L34.442,29.494C33.788,29.516,33.197,29.560,32.668,29.625C32.146,29.691,31.701,29.760,31.334,29.833L31.334,29.833C30.900,29.913,30.515,30.001,30.177,30.095L30.177,30.095L30.177,28.193C31.125,28.040,32.032,27.935,32.899,27.876C33.766,27.825,34.578,27.800,35.335,27.800ZZM48.242,27.603L48.242,27.603ZC48.749,27.603,49.238,27.632,49.708,27.691C50.178,27.749,50.619,27.836,51.030,27.953C51.442,28.062,51.820,28.193,52.166,28.346C52.504,28.507,52.794,28.685,53.036,28.882C53.279,29.086,53.466,29.305,53.599,29.538C53.738,29.778,53.808,30.030,53.808,30.292L53.808,30.292L53.808,36.697C53.808,36.967,53.738,37.218,53.599,37.451C53.466,37.692,53.279,37.910,53.036,38.107C52.794,38.304,52.504,38.482,52.166,38.643C51.820,38.796,51.442,38.931,51.030,39.047C50.619,39.156,50.178,39.240,49.708,39.298C49.238,39.364,48.749,39.397,48.242,39.397L48.242,39.397C47.742,39.397,47.257,39.364,46.787,39.298C46.317,39.240,45.879,39.156,45.475,39.047C45.064,38.931,44.685,38.796,44.340,38.643C44.002,38.482,43.712,38.304,43.469,38.107C43.227,37.910,43.036,37.692,42.896,37.451C42.764,37.218,42.698,36.967,42.698,36.697L42.698,36.697L42.698,30.292C42.698,30.030,42.764,29.778,42.896,29.538C43.036,29.305,43.227,29.086,43.469,28.882C43.712,28.685,44.002,28.507,44.340,28.346C44.685,28.193,45.064,28.062,45.475,27.953C45.879,27.836,46.317,27.749,46.787,27.691C47.257,27.632,47.742,27.603,48.242,27.603ZZM51.835,36.129L51.835,30.860C51.835,30.642,51.751,30.438,51.582,30.248C51.420,30.059,51.185,29.891,50.876,29.745C50.568,29.592,50.189,29.476,49.741,29.396C49.300,29.308,48.800,29.265,48.242,29.265L48.242,29.265C47.705,29.265,47.220,29.305,46.787,29.385C46.346,29.465,45.971,29.578,45.663,29.724C45.347,29.869,45.104,30.037,44.935,30.226C44.759,30.423,44.671,30.634,44.671,30.860L44.671,30.860L44.671,36.129C44.671,36.355,44.759,36.562,44.935,36.752C45.104,36.948,45.347,37.120,45.663,37.265C45.971,37.411,46.346,37.524,46.787,37.604C47.220,37.692,47.705,37.735,48.242,37.735L48.242,37.735C48.800,37.735,49.300,37.692,49.741,37.604C50.189,37.517,50.568,37.397,50.876,37.244C51.185,37.098,51.420,36.927,51.582,36.730C51.751,36.540,51.835,36.340,51.835,36.129ZL51.835,36.129ZZ" style="fill: rgb(236, 237, 134); fill-opacity: 1;"/></g></g></g></g></g></g></g></g></g></g></g></g></svg>